<?xml version="1.0" standalone="no"?>
<!DOCTYPE svg PUBLIC "-//W3C//DTD SVG 20010904//EN"
 "http://www.w3.org/TR/2001/REC-SVG-20010904/DTD/svg10.dtd">
<svg version="1.0" xmlns="http://www.w3.org/2000/svg"
 width="567.000000pt" height="567.000000pt" viewBox="0 0 567.000000 567.000000"
 preserveAspectRatio="xMidYMid meet">
<metadata>
Created by potrace 1.14, written by Peter Selinger 2001-2017
</metadata>
<g transform="translate(0.000000,567.000000) scale(0.100000,-0.100000)"
fill="#000000" stroke="none">
<path d="M2245 5290 l-339 -5 -16 -45 c-52 -141 -127 -347 -156 -430 -19 -52
-37 -102 -41 -110 -3 -8 -7 -17 -7 -20 -1 -3 -6 -18 -13 -35 -20 -54 -26 -70
-29 -80 -1 -5 -8 -23 -15 -40 -6 -16 -13 -34 -14 -40 -2 -5 -28 -80 -60 -165
-61 -167 -114 -311 -177 -485 -22 -60 -42 -117 -45 -125 -4 -8 -7 -17 -8 -20
-1 -3 -4 -12 -8 -20 -3 -8 -15 -42 -27 -75 -11 -33 -24 -67 -27 -75 -3 -8 -7
-18 -7 -22 -1 -3 -4 -10 -8 -14 -5 -4 -8 -17 -8 -29 0 -11 -4 -25 -9 -31 -8
-8 -19 -39 -72 -194 -11 -30 -23 -64 -28 -75 -8 -17 -74 -197 -187 -515 -19
-52 -37 -102 -41 -110 -3 -8 -7 -17 -7 -20 -1 -3 -4 -9 -8 -15 -5 -9 -38 -113
-38 -122 0 -2 240 -2 533 -1 l532 3 22 65 c24 74 86 267 198 615 42 132 79
247 82 255 4 8 7 17 8 20 0 3 9 32 20 65 10 33 19 62 20 65 1 3 23 73 50 155
27 83 49 152 50 155 2 8 66 212 86 271 20 62 55 234 64 320 4 39 10 56 21 56
8 0 14 -11 15 -26 1 -32 5 -63 13 -116 6 -35 12 -67 32 -175 6 -32 61 -214 80
-263 7 -20 14 -40 14 -45 1 -8 98 -317 109 -347 17 -42 31 -92 31 -108 0 -9 5
-17 10 -17 6 0 9 -3 8 -7 -1 -5 2 -19 6 -33 4 -14 23 -77 43 -140 19 -63 38
-122 41 -130 3 -8 6 -18 7 -22 2 -5 4 -10 5 -13 3 -5 3 -6 15 -50 4 -16 10
-34 14 -40 3 -5 7 -17 9 -25 3 -18 7 -30 15 -50 7 -20 30 -92 33 -105 1 -5 16
-50 32 -100 16 -49 40 -123 52 -162 l23 -73 558 0 c527 0 558 1 552 18 -3 9
-10 22 -14 27 -4 6 -10 22 -12 35 -3 14 -11 39 -17 55 -13 33 -107 295 -120
335 -4 14 -27 77 -50 140 -53 148 -97 273 -116 330 -8 25 -19 54 -24 65 -5 11
-23 61 -40 110 -17 50 -40 113 -50 140 -10 28 -46 129 -80 225 -34 96 -65 184
-70 195 -5 11 -25 67 -45 125 -20 58 -63 179 -95 270 -32 91 -70 199 -85 240
-15 41 -30 84 -35 95 -4 11 -22 63 -40 115 -18 52 -36 104 -40 115 -4 11 -18
47 -30 80 -12 33 -27 74 -33 90 -7 17 -12 32 -12 35 -1 3 -7 22 -14 43 l-13
37 -186 1 c-103 0 -245 1 -317 2 -71 1 -283 0 -470 -3z"/>
<path d="M702 2018 c-51 -145 -95 -267 -96 -273 -2 -5 -6 -17 -9 -25 -4 -8
-18 -48 -31 -87 l-23 -73 2518 0 2519 0 -11 27 c-58 154 -227 592 -255 661
l-13 32 -2253 0 -2253 0 -93 -262z"/>
<path d="M525 1465 c-7 -5 -25 -44 -40 -85 -15 -41 -31 -84 -36 -95 -4 -11
-47 -128 -95 -260 -48 -132 -95 -265 -106 -295 -11 -30 -42 -115 -69 -188 -27
-73 -49 -137 -49 -142 0 -5 10 -10 23 -10 12 0 31 0 42 0 11 0 38 -1 60 -1 22
0 51 0 65 -1 24 0 42 1 108 3 39 2 63 2 97 0 17 -1 37 -1 45 -1 17 1 76 1 105
0 11 -1 27 -1 35 0 8 0 29 0 45 -1 34 -2 58 -2 98 0 15 1 37 1 50 1 12 0 31 2
42 4 11 1 31 0 45 -4 14 -4 34 -4 45 0 11 4 32 4 47 -1 15 -4 30 -4 33 0 2 5
23 5 45 1 22 -4 40 -4 40 0 0 4 15 5 33 1 45 -10 80 1 94 29 11 22 69 200 79
240 1 8 17 58 34 110 17 52 33 102 35 110 2 8 20 65 40 125 20 61 38 117 40
125 1 8 22 73 45 143 23 70 43 135 45 145 2 9 6 25 10 35 6 14 1 17 -26 18
-19 1 -38 1 -42 0 -8 -1 -38 -2 -72 -1 -50 2 -152 1 -175 0 -14 -1 -31 -1 -37
-1 -22 2 -154 3 -190 2 -7 0 -29 0 -48 0 -19 0 -43 0 -52 0 -66 -1 -180 0
-188 0 -5 1 -39 0 -75 0 -36 -1 -98 0 -139 1 -41 2 -80 -1 -86 -7z"/>
<path d="M3497 1474 c-3 -3 -23 -5 -46 -6 -22 0 -39 -3 -37 -7 1 -3 15 -46 31
-96 15 -49 31 -99 36 -110 4 -11 19 -56 32 -100 14 -44 58 -181 98 -305 40
-124 74 -231 76 -238 6 -24 10 -37 16 -52 3 -8 11 -33 17 -55 6 -22 14 -47 17
-55 3 -8 7 -21 9 -28 4 -22 26 -42 37 -35 14 8 57 10 87 2 14 -3 34 -3 45 1
11 4 32 4 47 -1 15 -4 30 -4 33 0 2 5 23 5 45 1 22 -4 40 -4 40 0 0 4 15 5 33
1 17 -4 41 -6 52 -5 11 1 32 3 48 3 15 1 39 1 55 2 39 2 63 2 97 0 17 -1 37
-1 45 -1 17 1 76 1 105 0 11 -1 27 -1 35 0 8 0 29 0 45 -1 35 -2 61 -2 95 0
14 1 34 1 45 1 11 0 58 0 104 0 45 1 86 -1 89 -4 9 -10 32 16 25 28 -4 6 -8
16 -9 21 -1 6 -18 53 -37 105 -19 52 -56 156 -82 230 -26 74 -58 164 -70 200
-13 36 -58 163 -101 282 l-76 217 -95 3 c-52 2 -105 0 -117 -3 -13 -4 -29 -3
-35 1 -7 3 -28 4 -47 1 -20 -3 -76 -4 -125 -1 -49 3 -100 2 -113 -1 -13 -4
-29 -3 -36 1 -6 4 -28 4 -48 1 -20 -3 -57 -4 -82 -1 -25 3 -57 3 -71 -1 -15
-4 -32 -4 -38 0 -7 4 -29 5 -49 2 -20 -4 -57 -4 -82 -1 -25 3 -57 3 -70 0 -14
-4 -35 -3 -46 1 -12 4 -24 5 -27 3z"/>
</g>
</svg>
